<?xml version="1.0" standalone="no"?>
<!DOCTYPE svg PUBLIC "-//W3C//DTD SVG 20010904//EN"
 "http://www.w3.org/TR/2001/REC-SVG-20010904/DTD/svg10.dtd">
<svg version="1.0" xmlns="http://www.w3.org/2000/svg"
 width="1024.000000pt" height="1024.000000pt" viewBox="0 0 1024.000000 1024.000000"
 preserveAspectRatio="xMidYMid meet">

<g transform="translate(0.000000,1024.000000) scale(0.100000,-0.100000)"
fill="#000000" stroke="none">
<path d="M3270 8469 c-372 -33 -670 -144 -917 -343 -287 -232 -467 -559 -527
-961 -35 -231 -37 -393 -33 -2140 4 -1900 1 -1813 68 -2085 95 -383 283 -654
600 -866 203 -135 441 -217 749 -256 84 -10 468 -13 1915 -13 1684 0 1819 1
1935 18 249 35 404 82 591 178 143 74 259 160 369 275 106 111 169 199 237
332 87 172 134 338 170 597 17 121 18 255 18 1925 0 1931 1 1886 -51 2137 -93
453 -365 818 -761 1021 -166 85 -336 136 -578 173 -95 15 -3626 22 -3785 8z
m2249 -1397 c176 -28 293 -62 418 -122 342 -162 534 -411 610 -788 26 -129 24
-413 -4 -543 -44 -204 -140 -377 -287 -516 -126 -120 -245 -194 -398 -248 -43
-15 -78 -29 -78 -31 0 -2 243 -388 535 -849 319 -504 395 -626 395 -635 0 -7
-146 -10 -442 -10 l-443 0 -91 158 c-171 295 -560 967 -640 1105 l-79 137
-165 0 c-91 0 -208 3 -260 6 l-95 7 0 -704 0 -704 -393 0 -393 0 0 1875 c0
1031 0 1879 1 1883 0 5 377 7 838 4 798 -3 843 -5 971 -25z"/>
<path d="M4498 5904 l2 -556 388 5 c428 5 469 10 597 71 198 93 306 291 291
536 -14 246 -142 399 -386 465 -65 17 -397 32 -755 34 l-140 1 3 -556z"/>
</g>
</svg>
